<svg width="44" height="40" viewBox="0 0 44 40" fill="none" xmlns="http://www.w3.org/2000/svg">
<path d="M38.5 2.58322C38.5 1.57077 37.6792 0.75 36.6668 0.75H29.3332C28.3208 0.75 27.5 1.57077 27.5 2.58322V6.25H38.5V2.58322Z" fill="#1E1B1B"/>
<path d="M16.5 2.58322C16.5 1.57077 15.6792 0.75 14.6668 0.75H7.33322C6.32077 0.75 5.5 1.57077 5.5 2.58322V6.25H16.5V2.58322Z" fill="#1E1B1B"/>
<path d="M0 8.08301V35.583C0 36.5955 0.82077 37.4166 1.83322 37.4166H5.5V39.2498H9.16678V37.4166H34.8332V39.2498H38.5V37.4166H42.1668C43.1792 37.4166 44 36.5955 44 35.583V8.08301H0ZM14.6668 33.7498L18.3332 22.7498H12.8332L25.6668 11.7498L22 22.7498H27.5L14.6668 33.7498Z" fill="#1E1B1B"/>
</svg>
